<?xml version="1.0" encoding="utf-8"?>
<!-- Generator: Adobe Illustrator 16.0.0, SVG Export Plug-In . SVG Version: 6.00 Build 0)  -->
<!DOCTYPE svg PUBLIC "-//W3C//DTD SVG 1.1//EN" "http://www.w3.org/Graphics/SVG/1.1/DTD/svg11.dtd">
<svg version="1.1" id="Calque_1" xmlns="http://www.w3.org/2000/svg" xmlns:xlink="http://www.w3.org/1999/xlink" x="0px" y="0px"
	 width="700px" height="706px" viewBox="0 0 700 706" enable-background="new 0 0 700 706" xml:space="preserve">
<g>
	<path opacity="0.1412" fill="#89CFBD" d="M350.5,19c5.458,0,10.913,0.134,16.364,0.402c5.451,0.268,10.893,0.669,16.324,1.204
		c5.432,0.535,10.848,1.203,16.246,2.003c5.399,0.801,10.775,1.734,16.128,2.799c5.354,1.064,10.677,2.26,15.972,3.586
		c5.294,1.326,10.553,2.781,15.775,4.366c5.224,1.584,10.404,3.296,15.543,5.135s10.229,3.802,15.272,5.891
		c5.042,2.088,10.03,4.3,14.965,6.633c4.934,2.333,9.808,4.787,14.621,7.36s9.561,5.262,14.242,8.068
		c4.682,2.806,9.291,5.726,13.829,8.758s9,6.174,13.384,9.425s8.686,6.608,12.904,10.071c4.219,3.462,8.351,7.026,12.395,10.691
		c4.044,3.666,7.996,7.428,11.855,11.287s7.621,7.812,11.287,11.855c3.665,4.044,7.229,8.176,10.691,12.395
		c3.463,4.219,6.819,8.521,10.07,12.905c3.252,4.384,6.394,8.845,9.426,13.383s5.951,9.148,8.758,13.83
		c2.806,4.681,5.495,9.429,8.068,14.242c2.572,4.813,5.025,9.688,7.359,14.621c2.333,4.934,4.545,9.922,6.633,14.965
		c2.089,5.042,4.053,10.133,5.892,15.272c1.839,5.139,3.551,10.32,5.135,15.542c1.584,5.223,3.04,10.482,4.366,15.776
		c1.326,5.295,2.521,10.618,3.586,15.972c1.064,5.353,1.998,10.729,2.799,16.128s1.469,10.814,2.004,16.246
		c0.534,5.432,0.936,10.873,1.204,16.324c0.268,5.452,0.401,10.906,0.401,16.364s-0.134,10.913-0.401,16.364
		c-0.269,5.451-0.67,10.893-1.204,16.324c-0.535,5.432-1.203,10.848-2.004,16.246c-0.801,5.399-1.734,10.775-2.799,16.128
		c-1.064,5.354-2.26,10.677-3.586,15.972c-1.326,5.294-2.782,10.553-4.366,15.775c-1.584,5.224-3.296,10.404-5.135,15.543
		s-3.803,10.229-5.892,15.272c-2.088,5.042-4.3,10.03-6.633,14.965c-2.334,4.934-4.787,9.808-7.359,14.621
		c-2.573,4.813-5.263,9.561-8.068,14.242c-2.807,4.682-5.726,9.291-8.758,13.829s-6.174,9-9.426,13.384
		c-3.251,4.384-6.607,8.686-10.07,12.904s-7.026,8.351-10.691,12.395c-3.666,4.044-7.428,7.996-11.287,11.855
		s-7.812,7.621-11.855,11.287c-4.044,3.665-8.176,7.229-12.395,10.691s-8.521,6.819-12.904,10.07
		c-4.384,3.252-8.846,6.394-13.384,9.426s-9.147,5.951-13.829,8.758c-4.682,2.806-9.429,5.495-14.242,8.068
		c-4.813,2.572-9.688,5.025-14.621,7.359c-4.935,2.333-9.923,4.545-14.965,6.633c-5.043,2.089-10.134,4.053-15.272,5.892
		s-10.319,3.551-15.543,5.135c-5.223,1.584-10.481,3.04-15.775,4.366c-5.295,1.326-10.618,2.521-15.972,3.586
		s-10.729,1.998-16.128,2.799c-5.398,0.801-10.814,1.469-16.246,2.004c-5.432,0.534-10.873,0.936-16.324,1.204
		C361.413,685.866,355.958,686,350.5,686s-10.913-0.134-16.364-0.401c-5.451-0.269-10.893-0.67-16.324-1.204
		c-5.432-0.535-10.847-1.203-16.246-2.004s-10.775-1.734-16.128-2.799c-5.354-1.064-10.677-2.26-15.971-3.586
		s-10.553-2.782-15.776-4.366c-5.223-1.584-10.404-3.296-15.543-5.135c-5.139-1.839-10.229-3.803-15.272-5.892
		c-5.042-2.088-10.031-4.3-14.965-6.633c-4.934-2.334-9.808-4.787-14.621-7.359c-4.813-2.573-9.561-5.263-14.242-8.068
		c-4.682-2.807-9.292-5.726-13.83-8.758s-8.999-6.174-13.383-9.426c-4.384-3.251-8.686-6.607-12.905-10.07
		c-4.219-3.463-8.351-7.026-12.395-10.691c-4.044-3.666-7.996-7.428-11.855-11.287s-7.622-7.812-11.287-11.855
		c-3.665-4.044-7.229-8.176-10.691-12.395c-3.463-4.219-6.819-8.521-10.071-12.904s-6.393-8.846-9.425-13.384
		c-3.033-4.538-5.952-9.147-8.758-13.829c-2.806-4.682-5.495-9.429-8.068-14.242c-2.573-4.813-5.026-9.688-7.36-14.621
		c-2.333-4.935-4.545-9.923-6.633-14.965c-2.089-5.043-4.052-10.134-5.891-15.272s-3.55-10.319-5.135-15.543
		c-1.584-5.223-3.04-10.481-4.366-15.775c-1.326-5.295-2.522-10.618-3.586-15.972c-1.065-5.354-1.998-10.729-2.798-16.128
		c-0.801-5.398-1.469-10.814-2.004-16.246c-0.535-5.432-0.937-10.873-1.204-16.324C17.134,363.413,17,357.958,17,352.5
		s0.134-10.913,0.402-16.364c0.268-5.451,0.669-10.893,1.204-16.324c0.535-5.432,1.203-10.847,2.004-16.246
		c0.801-5.399,1.733-10.775,2.798-16.128c1.064-5.354,2.26-10.677,3.586-15.972c1.326-5.294,2.781-10.553,4.366-15.776
		s3.296-10.404,5.135-15.542c1.839-5.139,3.802-10.23,5.891-15.272c2.088-5.042,4.3-10.031,6.633-14.965
		c2.333-4.934,4.787-9.808,7.36-14.621c2.573-4.813,5.262-9.561,8.068-14.242c2.806-4.682,5.725-9.292,8.758-13.83
		c3.032-4.538,6.174-8.999,9.425-13.383c3.251-4.384,6.608-8.685,10.071-12.904c3.462-4.219,7.026-8.351,10.691-12.395
		c3.666-4.044,7.428-7.996,11.287-11.855s7.812-7.622,11.855-11.287c4.044-3.665,8.176-7.229,12.395-10.691
		c4.219-3.463,8.521-6.819,12.905-10.071c4.384-3.251,8.845-6.393,13.383-9.425s9.148-5.952,13.83-8.758
		c4.681-2.806,9.429-5.495,14.242-8.068s9.688-5.026,14.621-7.36c4.934-2.333,9.922-4.545,14.965-6.633
		c5.042-2.089,10.133-4.052,15.272-5.891c5.139-1.839,10.32-3.55,15.542-5.135c5.223-1.584,10.482-3.04,15.776-4.366
		s10.618-2.522,15.971-3.586c5.353-1.065,10.729-1.998,16.128-2.799c5.399-0.801,10.814-1.469,16.246-2.003
		c5.432-0.535,10.873-0.937,16.324-1.204C339.587,19.134,345.042,19,350.5,19z"/>
	<path opacity="0.1412" fill="#89CFBD" d="M352,107c4.026,0,8.05,0.099,12.07,0.296c4.021,0.197,8.035,0.494,12.042,0.888
		s8.001,0.887,11.983,1.478s7.948,1.279,11.896,2.064c3.948,0.786,7.876,1.667,11.781,2.646c3.905,0.979,7.784,2.052,11.637,3.221
		c3.853,1.168,7.674,2.431,11.465,3.787c3.79,1.356,7.546,2.805,11.265,4.346c3.72,1.541,7.399,3.172,11.039,4.893
		s7.234,3.531,10.785,5.429c3.55,1.898,7.052,3.881,10.505,5.952c3.454,2.069,6.854,4.223,10.201,6.459s6.639,4.554,9.872,6.953
		c3.233,2.398,6.406,4.874,9.519,7.428s6.16,5.183,9.143,7.887c2.983,2.704,5.898,5.479,8.745,8.326s5.622,5.762,8.326,8.745
		c2.703,2.983,5.332,6.031,7.886,9.143c2.555,3.112,5.03,6.285,7.429,9.519c2.398,3.233,4.716,6.524,6.952,9.872
		c2.237,3.348,4.391,6.748,6.46,10.201c2.07,3.453,4.054,6.955,5.951,10.505c1.898,3.551,3.708,7.146,5.429,10.785
		c1.722,3.64,3.353,7.319,4.894,11.039c1.541,3.719,2.989,7.475,4.346,11.265s2.618,7.612,3.787,11.465s2.242,7.731,3.221,11.637
		c0.978,3.906,1.859,7.833,2.646,11.781c0.785,3.949,1.474,7.914,2.064,11.896c0.59,3.982,1.083,7.977,1.478,11.983
		c0.395,4.007,0.69,8.021,0.889,12.042C597.901,344.951,598,348.974,598,353c0,4.025-0.099,8.05-0.296,12.07
		c-0.198,4.021-0.494,8.035-0.889,12.042s-0.888,8.001-1.478,11.983c-0.591,3.982-1.279,7.948-2.064,11.896
		c-0.786,3.948-1.668,7.876-2.646,11.781c-0.979,3.905-2.052,7.784-3.221,11.637s-2.431,7.674-3.787,11.465
		c-1.356,3.79-2.805,7.546-4.346,11.265c-1.541,3.72-3.172,7.399-4.894,11.039c-1.721,3.64-3.53,7.234-5.429,10.785
		c-1.897,3.55-3.881,7.052-5.951,10.505c-2.069,3.453-4.223,6.854-6.46,10.201c-2.236,3.348-4.554,6.639-6.952,9.872
		s-4.874,6.406-7.429,9.519c-2.554,3.112-5.183,6.16-7.886,9.143c-2.704,2.983-5.479,5.898-8.326,8.745s-5.762,5.622-8.745,8.325
		c-2.982,2.704-6.03,5.333-9.143,7.887c-3.112,2.555-6.285,5.03-9.519,7.429s-6.524,4.716-9.872,6.952
		c-3.348,2.237-6.747,4.391-10.201,6.46c-3.453,2.07-6.955,4.054-10.505,5.951c-3.551,1.898-7.146,3.708-10.785,5.429
		c-3.64,1.722-7.319,3.353-11.039,4.894c-3.719,1.54-7.475,2.989-11.265,4.346c-3.791,1.356-7.612,2.618-11.465,3.787
		s-7.731,2.242-11.637,3.221c-3.905,0.978-7.833,1.859-11.781,2.646c-3.948,0.785-7.914,1.474-11.896,2.064
		c-3.982,0.59-7.977,1.083-11.983,1.478s-8.021,0.69-12.042,0.888C360.05,598.901,356.026,599,352,599
		c-4.026,0-8.049-0.099-12.071-0.297c-4.021-0.197-8.035-0.493-12.042-0.888c-4.006-0.395-8.001-0.888-11.983-1.478
		c-3.982-0.591-7.948-1.279-11.896-2.064c-3.949-0.786-7.875-1.668-11.781-2.646c-3.905-0.979-7.785-2.052-11.637-3.221
		s-7.674-2.431-11.465-3.787s-7.545-2.806-11.265-4.346c-3.72-1.541-7.399-3.172-11.039-4.894c-3.639-1.721-7.234-3.53-10.785-5.429
		c-3.551-1.897-7.053-3.881-10.506-5.951c-3.453-2.069-6.854-4.223-10.201-6.46c-3.347-2.236-6.638-4.554-9.872-6.952
		s-6.407-4.874-9.519-7.429c-3.112-2.554-6.16-5.183-9.143-7.887c-2.983-2.703-5.898-5.479-8.745-8.325s-5.622-5.762-8.326-8.745
		c-2.704-2.982-5.333-6.03-7.887-9.143s-5.03-6.285-7.428-9.519c-2.398-3.233-4.716-6.524-6.953-9.872s-4.39-6.747-6.46-10.201
		c-2.069-3.453-4.053-6.955-5.951-10.505c-1.898-3.551-3.708-7.146-5.429-10.785s-3.353-7.319-4.893-11.039
		c-1.541-3.719-2.989-7.475-4.345-11.265c-1.356-3.791-2.619-7.612-3.788-11.465c-1.169-3.853-2.242-7.731-3.221-11.637
		c-0.978-3.905-1.86-7.833-2.645-11.781c-0.786-3.948-1.474-7.914-2.064-11.896s-1.083-7.977-1.478-11.983
		s-0.691-8.021-0.888-12.042C106.099,361.05,106,357.025,106,353c0-4.026,0.099-8.049,0.296-12.071
		c0.197-4.021,0.494-8.035,0.888-12.042c0.395-4.006,0.887-8.001,1.478-11.983s1.279-7.948,2.064-11.896
		c0.785-3.949,1.667-7.875,2.645-11.781c0.979-3.906,2.052-7.785,3.221-11.637c1.168-3.853,2.431-7.674,3.788-11.465
		c1.356-3.791,2.805-7.546,4.345-11.265c1.541-3.72,3.172-7.399,4.893-11.039c1.721-3.639,3.531-7.234,5.429-10.785
		c1.898-3.55,3.882-7.052,5.951-10.505c2.07-3.453,4.223-6.854,6.46-10.201c2.237-3.347,4.554-6.638,6.953-9.872
		c2.398-3.234,4.874-6.407,7.428-9.519c2.554-3.112,5.183-6.16,7.887-9.143s5.479-5.898,8.326-8.745s5.762-5.622,8.745-8.326
		s6.031-5.333,9.143-7.887c3.112-2.554,6.285-5.03,9.519-7.428c3.234-2.398,6.524-4.716,9.872-6.953
		c3.348-2.237,6.748-4.39,10.201-6.459c3.453-2.07,6.955-4.054,10.506-5.952c3.55-1.898,7.146-3.708,10.785-5.429
		c3.64-1.721,7.319-3.353,11.039-4.893s7.475-2.989,11.265-4.346c3.791-1.356,7.612-2.619,11.465-3.787
		c3.853-1.169,7.731-2.242,11.637-3.221c3.905-0.978,7.832-1.86,11.781-2.646c3.949-0.785,7.914-1.473,11.896-2.064
		s7.977-1.083,11.983-1.478c4.007-0.395,8.021-0.691,12.042-0.888C343.951,107.099,347.974,107,352,107z"/>
</g>
</svg>
