<svg xmlns="http://www.w3.org/2000/svg" xmlns:xlink="http://www.w3.org/1999/xlink" width="414" height="736" viewBox="0 0 414 736">
  <defs>
    <radialGradient id="radial-gradient" cx="0.667" cy="0.674" r="1.063" gradientTransform="matrix(0.809, -0.588, 0.426, 0.586, -0.117, 0.501)" gradientUnits="objectBoundingBox">
      <stop offset="0" stop-color="#25016e"/>
      <stop offset="1" stop-color="#18003b"/>
    </radialGradient>
    <clipPath id="clip-Sign_in">
      <rect width="414" height="736"/>
    </clipPath>
  </defs>
  <g id="Sign_in" data-name="Sign in" clip-path="url(#clip-Sign_in)">
    <rect width="414" height="736" fill="#fff"/>
    <rect id="Rectangle_1" data-name="Rectangle 1" width="414" height="736" fill="url(#radial-gradient)"/>
    <g id="cercles" transform="translate(-143.499 15.5)">
      <path id="Tracé_6490" data-name="Tracé 6490" d="M350.5,19q8.187,0,16.364.4t16.324,1.2q8.148.8,16.246,2t16.128,2.8q8.031,1.6,15.972,3.586t15.775,4.366q7.836,2.376,15.543,5.135t15.272,5.891q7.563,3.132,14.965,6.633t14.621,7.36q7.219,3.86,14.242,8.068t13.829,8.758q6.807,4.548,13.384,9.425t12.9,10.071q6.328,5.193,12.4,10.691t11.855,11.287q5.789,5.789,11.287,11.855t10.691,12.4q5.195,6.328,10.07,12.9t9.426,13.383q4.548,6.807,8.758,13.83t8.068,14.242q3.858,7.22,7.359,14.621t6.633,14.965q3.133,7.563,5.892,15.272t5.135,15.542q2.376,7.834,4.366,15.776t3.586,15.972q1.6,8.029,2.8,16.128t2,16.246q.8,8.148,1.2,16.324T684,352.5q0,8.187-.4,16.364t-1.2,16.324q-.8,8.148-2,16.246t-2.8,16.128q-1.6,8.031-3.586,15.972t-4.366,15.775q-2.376,7.836-5.135,15.543t-5.892,15.272q-3.132,7.563-6.633,14.965t-7.359,14.621q-3.859,7.22-8.068,14.242t-8.758,13.829q-4.548,6.807-9.426,13.384t-10.07,12.9q-5.195,6.327-10.691,12.4t-11.287,11.855q-5.789,5.789-11.855,11.287t-12.4,10.691q-6.328,5.193-12.9,10.07t-13.384,9.426q-6.807,4.548-13.829,8.758t-14.242,8.068q-7.219,3.858-14.621,7.359t-14.965,6.633q-7.564,3.133-15.272,5.892t-15.543,5.135q-7.834,2.376-15.775,4.366t-15.972,3.586q-8.031,1.6-16.128,2.8t-16.246,2q-8.148.8-16.324,1.2T350.5,686q-8.187,0-16.364-.4t-16.324-1.2q-8.148-.8-16.246-2t-16.128-2.8q-8.031-1.6-15.971-3.586t-15.776-4.366q-7.835-2.376-15.543-5.135t-15.272-5.892q-7.563-3.132-14.965-6.633t-14.621-7.359q-7.22-3.859-14.242-8.068t-13.83-8.758q-6.807-4.548-13.383-9.426t-12.9-10.07q-6.328-5.195-12.4-10.691T114.68,588.321q-5.788-5.789-11.287-11.855T92.7,564.071q-5.194-6.328-10.071-12.9t-9.425-13.384q-4.549-6.807-8.758-13.829T56.38,509.712q-3.859-7.219-7.36-14.621t-6.633-14.965q-3.134-7.564-5.891-15.272t-5.135-15.543q-2.376-7.834-4.366-15.775t-3.586-15.972q-1.6-8.031-2.8-16.128t-2-16.246q-.8-8.148-1.2-16.324T17,352.5q0-8.187.4-16.364t1.2-16.324q.8-8.148,2-16.246t2.8-16.128q1.6-8.031,3.586-15.972T31.36,255.69q2.377-7.834,5.135-15.542t5.891-15.272q3.132-7.563,6.633-14.965t7.36-14.621q3.86-7.22,8.068-14.242t8.758-13.83q4.548-6.807,9.425-13.383t10.071-12.9q5.193-6.328,10.691-12.4t11.287-11.855q5.789-5.788,11.855-11.287t12.4-10.691q6.328-5.194,12.9-10.071t13.383-9.425q6.807-4.548,13.83-8.758t14.242-8.068q7.22-3.86,14.621-7.36t14.965-6.633q7.563-3.134,15.272-5.891t15.542-5.135q7.834-2.376,15.776-4.366t15.971-3.586q8.029-1.6,16.128-2.8t16.246-2q8.148-.8,16.324-1.2T350.5,19Z" fill="#89cfbd" opacity="0.141"/>
      <path id="Tracé_6491" data-name="Tracé 6491" d="M352,107q6.039,0,12.07.3t12.042.888q6.01.591,11.983,1.478t11.9,2.064q5.922,1.179,11.781,2.646t11.637,3.221q5.779,1.752,11.465,3.787t11.265,4.346q5.58,2.312,11.039,4.893t10.785,5.429q5.325,2.847,10.505,5.952t10.2,6.459q5.02,3.354,9.872,6.953t9.519,7.428q4.67,3.831,9.143,7.887t8.745,8.326q4.27,4.271,8.326,8.745t7.886,9.143q3.832,4.668,7.429,9.519t6.952,9.872q3.355,5.022,6.46,10.2t5.951,10.505q2.847,5.326,5.429,10.785t4.894,11.039q2.312,5.578,4.346,11.265t3.787,11.465q1.754,5.779,3.221,11.637t2.646,11.781q1.177,5.924,2.064,11.9t1.478,11.983q.593,6.01.889,12.042T598,353q0,6.037-.3,12.07t-.889,12.042q-.592,6.01-1.478,11.983t-2.064,11.9q-1.179,5.922-2.646,11.781t-3.221,11.637q-1.754,5.779-3.787,11.465t-4.346,11.265q-2.312,5.58-4.894,11.039t-5.429,10.785Q566.1,474.288,563,479.468t-6.46,10.2q-3.354,5.022-6.952,9.872t-7.429,9.519q-3.831,4.668-7.886,9.143t-8.326,8.745q-4.27,4.27-8.745,8.325t-9.143,7.887q-4.668,3.832-9.519,7.429t-9.872,6.952q-5.022,3.355-10.2,6.46t-10.505,5.951q-5.326,2.847-10.785,5.429t-11.039,4.894q-5.578,2.31-11.265,4.346t-11.465,3.787q-5.779,1.754-11.637,3.221t-11.781,2.646q-5.922,1.177-11.9,2.064t-11.983,1.478q-6.009.593-12.042.888T352,599q-6.039,0-12.071-.3t-12.042-.888q-6.009-.593-11.983-1.478t-11.9-2.064q-5.924-1.179-11.781-2.646t-11.637-3.221q-5.778-1.754-11.465-3.787t-11.265-4.346q-5.58-2.312-11.039-4.894t-10.785-5.429Q230.709,567.1,225.53,564t-10.2-6.46q-5.021-3.354-9.872-6.952t-9.519-7.429q-4.668-3.831-9.143-7.887t-8.745-8.325q-4.271-4.269-8.326-8.745t-7.887-9.143q-3.831-4.669-7.428-9.519t-6.953-9.872q-3.355-5.022-6.46-10.2t-5.951-10.505q-2.847-5.326-5.429-10.785t-4.893-11.039q-2.312-5.578-4.345-11.265t-3.788-11.465q-1.753-5.779-3.221-11.637t-2.645-11.781q-1.179-5.922-2.064-11.9t-1.478-11.983q-.592-6.009-.888-12.042T106,353q0-6.039.3-12.071t.888-12.042q.592-6.009,1.478-11.983t2.064-11.9q1.178-5.924,2.645-11.781t3.221-11.637q1.752-5.779,3.788-11.465t4.345-11.265q2.312-5.58,4.893-11.039t5.429-10.785q2.847-5.325,5.951-10.505t6.46-10.2q3.355-5.021,6.953-9.872t7.428-9.519q3.831-4.668,7.887-9.143t8.326-8.745q4.271-4.271,8.745-8.326t9.143-7.887q4.668-3.831,9.519-7.428t9.872-6.953q5.022-3.355,10.2-6.459t10.506-5.952q5.325-2.847,10.785-5.429t11.039-4.893q5.58-2.31,11.265-4.346t11.465-3.787q5.779-1.753,11.637-3.221t11.781-2.646q5.924-1.178,11.9-2.064t11.983-1.478q6.01-.592,12.042-.888T352,107Z" fill="#89cfbd" opacity="0.141"/>
    </g>
  </g>
</svg>
