<?xml version="1.0" encoding="utf-8"?>
<!-- Generator: Adobe Illustrator 16.0.0, SVG Export Plug-In . SVG Version: 6.00 Build 0)  -->
<!DOCTYPE svg PUBLIC "-//W3C//DTD SVG 1.1//EN" "http://www.w3.org/Graphics/SVG/1.1/DTD/svg11.dtd">
<svg version="1.1" id="Calque_1" xmlns="http://www.w3.org/2000/svg" xmlns:xlink="http://www.w3.org/1999/xlink" x="0px" y="0px"
	 width="159.8px" height="445.834px" viewBox="0 0 159.8 445.834" enable-background="new 0 0 159.8 445.834" xml:space="preserve">
<g>
	<path fill-rule="evenodd" clip-rule="evenodd" fill="#2C2C2E" d="M145.12,99.487c-1.732,19.853-19.412,38.23-40.171,41.757
		c-2.337-7.81-2.687-15.793-2.096-23.854c0.517-1.921,2.066-2.879,3.601-3.892c14.779-9.756,17.216-23.231,6.832-37.7
		c-0.387-0.539-0.752-1.088-1.031-1.695c-0.752-4.228,0.566-7.846,3.257-11.059c4.716,0.054,8.718-0.897,10.067-6.351
		c0.363-1.47,1.711-2.376,3.439-2.237c10.983,7.308,16.164,17.716,16.414,30.754c0.262,1.986-0.568,4.067,0.516,5.984c0,1,0,2,0,3
		C144.774,95.818,145.969,97.813,145.12,99.487z"/>
	<path fill-rule="evenodd" clip-rule="evenodd" fill="#535357" d="M18.948,387.194c6.921-7.065,13.86-14.114,20.756-21.204
		c3.33-3.424,6.996-6.089,12.055-5.998c7.551-1.314,13.183,4.366,13.483,13.583c-0.253,6.771-5.105,10.662-9.356,14.933
		c-1.926,1.782-3.776,3.643-5.576,5.558c-2.518,2.601-5.187,5.044-7.441,7.905c-5.413,6.871-8.071,7.037-14.311,1.082
		c-3.586-3.64-7.207-7.257-9.609-11.858C18.948,389.861,18.948,388.527,18.948,387.194z"/>
	<path fill-rule="evenodd" clip-rule="evenodd" fill="#DADADA" d="M29.143,401.934c0.847,0.777,1.745,1.507,2.53,2.342
		c2.576,2.741,4.985,2.705,7.569-0.092c3.475-3.76,7.104-7.379,10.667-11.058c1.31-0.477,2.368,0.19,3.069,1.064
		c3.103,3.869,8.186,5.952,9.943,11.021c-9.513,7.74-9.519,8.361-0.443,16.122c1.385,1.185,2.5,2.699,3.937,3.807
		c2.886,2.224,2.983,4.504,0.533,7.054c-1,0-2,0-3,0c-2.914-1.409-4.988-3.821-7.216-6.048c-6.284-6.278-6.282-6.28-12.72,0.154
		c-0.588,0.588-1.237,1.128-1.755,1.772c-2.403,2.995-5.429,4.268-9.246,3.472c-5.448-4.421-11.087-8.666-14.063-15.351c0-1,0-2,0-3
		C20.909,408.139,24.608,404.658,29.143,401.934z"/>
	<path fill-rule="evenodd" clip-rule="evenodd" fill="#949494" d="M121.948,12.194c0.533,0.337,1.027,0.868,1.605,0.981
		c5.486,1.081,8.174,4.227,7.507,9.933c-6.358-0.646-12.284-2.385-17.161-6.779c1.35-1.378,2.699-2.757,4.049-4.135
		C119.282,12.194,120.614,12.194,121.948,12.194z"/>
	<path fill-rule="evenodd" clip-rule="evenodd" fill="#2C2C2E" d="M145.112,84.903c0.379-0.188,0.656-0.091,0.836,0.291c0,2,0,4,0,6
		C144.286,89.281,144.98,87.055,145.112,84.903z"/>
	<path fill-rule="evenodd" clip-rule="evenodd" fill="#2C2C2E" d="M145.12,99.487c-0.18-1.835-0.784-3.737,0.828-5.293
		c0,1.667,0,3.333,0,5C145.672,99.292,145.396,99.39,145.12,99.487z"/>
	<path fill-rule="evenodd" clip-rule="evenodd" fill="#939393" d="M64.113,374.29c-0.688-9.303-3.541-12.604-12.354-14.298
		c10.076-13.434,20.353-26.707,29.453-40.862c5.366-8.345,7.384-17.441,7.451-27.012c0.174-25.134,0.415-50.277-0.104-75.402
		c-0.519-25.136-0.354-50.269-0.613-75.401c-1.374-1.622-1.637-3.592-1.543-5.582c0.305-6.374-0.975-12.825,0.903-19.123
		c0.866-1.28,2.269-1.589,3.529-1.252c4.351,1.163,8.906-1.195,13.168,0.872c0.315,8.339,0.63,16.677,0.945,25.015
		c0.051,22.643,0.101,45.285,0.151,67.927c0.645,1.781,0.314,3.628,0.315,5.439c0.024,27.288-0.251,54.581,0.136,81.863
		c0.182,12.865-3.652,24.097-10.492,34.68c-7.234,11.196-15.205,21.858-23.411,32.333C68.918,366.971,67.792,371.519,64.113,374.29z
		"/>
	<path fill-rule="evenodd" clip-rule="evenodd" fill="#2C2C2E" d="M87.95,116.193c-0.001,8.373-0.002,16.747-0.004,25.121
		c-18.568-2.123-34.951-17.007-40.337-36.646c-5.209-18.995,2.035-40.09,17.773-52.051c9.351-7.106,19.898-10.415,31.573-10.369
		c0.624,0.681,0.842,1.588,0.463,2.317c-2.721,5.251-1.195,9.428,3.12,12.965c-0.03,3.742-1.13,7.115-3.46,10.067
		c-3.389,1.157-6.908,1.776-10.407,2.471c-4.308-0.777-6.299-4.57-9.166-7.186c-4.252-3.88-4.949-3.988-8.922-0.132
		c-5.272,5.118-5.516,6.925-1.803,11.107c2.376,2.678,5.757,4.549,6.819,8.313c0.061,1.237-0.294,2.414-0.494,3.615
		c-2.509,11.791,1.676,21.33,12.007,27.49C86.28,113.975,88.172,114.094,87.95,116.193z"/>
	<path fill-rule="evenodd" clip-rule="evenodd" fill="#535357" d="M100.12,57.218c-6.666-3.333-6.754-3.565-4.397-10.672
		c0.468-1.413,0.825-2.863,1.233-4.297c0.664-1.352,1.328-2.704,1.992-4.056c10.555,1.836,20.24,5.961,29.481,11.239
		c0.238,0.136,0.284,0.576,0.38,0.893c-0.389,1.618-1.24,3.27,0.337,4.749c-2.323,0.166-2.587,2.083-3.224,3.729
		c-2.209,5.701-3.941,6.442-10.082,4.388C109.872,63.118,104.725,60.881,100.12,57.218z"/>
	<path fill-rule="evenodd" clip-rule="evenodd" fill="#C3C3C3" d="M128.809,50.325c-9.592-4.934-20.029-7.79-29.861-12.132
		c0.834-5.277,2.73-10.207,4.916-15.043c8.508,3.321,16.967,6.771,25.611,9.733c1.713,0.587,3.531,1.127,4.303,3.077
		C132.962,41.04,131.153,45.775,128.809,50.325z"/>
	<path fill-rule="evenodd" clip-rule="evenodd" fill="#535357" d="M133.778,35.961c-8.627-3.256-17.273-6.465-25.865-9.813
		c-1.542-0.602-3.785-0.553-4.049-2.998c2.934-7.884,3.951-8.575,10.035-6.821c5.721,2.26,11.441,4.52,17.161,6.779
		C137.213,25.42,137.637,27.428,133.778,35.961z"/>
	<path fill-rule="evenodd" clip-rule="evenodd" fill="#DADADA" d="M64.113,374.29c1.032-5.653,5.059-9.555,8.245-13.918
		c9.487-12.995,19.702-25.485,27.075-39.923c3.701-7.249,5.496-14.919,5.502-23.007c0.018-27.434-0.023-54.867-0.026-82.3
		c-0.001-1.99,0.124-3.981,0.192-5.972c1.33,1.603,0.784,3.517,0.786,5.294c0.037,29.986,0.556,59.987-0.212,89.954
		c-0.332,12.931,0.869,26.343-4.835,38.728c-4.829,10.486-11.542,19.776-18.353,29.005c-5.123,6.944-10.305,13.847-15.38,20.826
		c-1.148,1.578-2.531,3.159-2.311,5.372c-4.748-2.023-8.4-5.117-9.983-10.229C58.279,383.757,63.659,380.68,64.113,374.29z"/>
	<path fill-rule="evenodd" clip-rule="evenodd" fill="#959595" d="M54.813,388.121c2.779,3.945,6.531,6.94,9.984,10.229
		c0.684,0.719,1.377,1.431,2.051,2.158c1.355,1.464,3.079,2.899,1.251,5.085c-1.838,2.198-3.524,0.771-5.177-0.381
		c-4.337-4.028-8.675-8.058-13.013-12.086C51.544,391.458,53.178,389.789,54.813,388.121z"/>
	<path fill-rule="evenodd" clip-rule="evenodd" fill="#C3C3C3" d="M87.95,116.193c-6.845-3.133-12.379-7.582-15.164-14.875
		C70.765,96.027,70.29,90.7,72.1,85.26c2.452-1.444,3.645,0.679,4.959,1.927c4.465,4.239,8.617,8.806,13.142,12.979
		c4.768,4.398,9.08,3.577,12.556-2.159c1.896-5.903,0.184-10.512-4.546-14.481c-3.529-2.962-6.643-6.434-9.838-9.777
		c-1.191-1.246-2.972-2.285-2.438-4.51c3.559-1.062,7.111-2.155,10.883-2.142c5.322-1.611,12.345,1.439,16.216,7.045
		c12.737,12.845,9.599,32.433-6.495,40.589c-0.875,0.443-1.692,0.997-2.537,1.499C98.649,117.474,93.297,117.549,87.95,116.193z"/>
	<path fill-rule="evenodd" clip-rule="evenodd" fill="#C1C1C2" d="M130.641,116.839c-0.144,3.772-3.848,7.242-7.658,7.172
		c-4.111-0.076-7.404-3.777-7.123-8.007c0.267-4.022,3.682-7.034,7.734-6.819C127.555,109.394,130.791,112.909,130.641,116.839z"/>
	<path fill-rule="evenodd" clip-rule="evenodd" fill="#939393" d="M113.035,74.142c-4.831-3.669-9.933-6.72-16.216-7.045
		c1.1-3.293,2.199-6.586,3.301-9.879c5.24,1.991,10.48,3.981,15.721,5.973C114.958,66.854,112.413,70.093,113.035,74.142z"/>
	<path fill-rule="evenodd" clip-rule="evenodd" fill="#F4F4F4" d="M85.936,69.238c4.17,4.302,8.071,8.91,12.578,12.821
		c5.112,4.438,7.776,9.281,5.432,16.042c-5.936,5.808-10.316,5.92-16.078-0.093c-5.008-5.228-10.943-9.601-14.862-15.851
		c-2.868-2.994-5.73-5.995-8.605-8.982c-2.354-2.446-2.538-5.171-0.277-7.563c8.491-8.986,8.593-10.154,16.856-1.289
		C82.565,66.023,84.28,67.604,85.936,69.238z"/>
	<path fill-rule="evenodd" clip-rule="evenodd" fill="#969696" d="M73.005,82.158c4.122,4.03,8.277,8.026,12.358,12.098
		c8.367,8.348,8.371,8.368,18.582,3.847c-2.793,6.633-8.986,8.238-14.139,3.437c-4.593-4.28-8.89-8.876-13.376-13.273
		c-1.255-1.229-2.197-3.005-4.331-3.006C71.811,84.054,72.524,83.141,73.005,82.158z"/>
</g>
</svg>
