<svg xmlns="http://www.w3.org/2000/svg" width="46.002" height="46.002" viewBox="0 0 46.002 46.002">
  <g id="fast-forward" transform="translate(-5.366 -5.766)">
    <path id="Tracé_6500" data-name="Tracé 6500" d="M28.367,5.766q1.131,0,2.254.11t2.232.331q1.108.22,2.189.549t2.125.761q1.042.432,2.04.965t1.937,1.16q.939.628,1.813,1.345T44.63,12.5q.8.8,1.516,1.673t1.346,1.813a22.023,22.023,0,0,1,1.159,1.937c.354.664.678,1.344.966,2.04s.542,1.4.761,2.125.4,1.451.549,2.189.257,1.483.33,2.233.111,1.5.111,2.254-.037,1.5-.111,2.254-.184,1.494-.33,2.232-.33,1.469-.549,2.189-.474,1.429-.761,2.125-.61,1.375-.966,2.039-.74,1.311-1.159,1.938-.866,1.23-1.346,1.813-.982,1.141-1.516,1.674-1.09,1.037-1.673,1.516-1.188.926-1.813,1.346a22.522,22.522,0,0,1-1.937,1.159q-1,.532-2.04.966t-2.125.76c-.723.22-1.45.4-2.189.549s-1.482.258-2.232.331-1.5.11-2.254.11-1.506-.037-2.255-.11-1.493-.185-2.232-.331a22.306,22.306,0,0,1-2.189-.549q-1.082-.329-2.125-.76c-.695-.289-1.376-.609-2.04-.966s-1.311-.741-1.937-1.159-1.23-.867-1.813-1.346-1.14-.982-1.673-1.516-1.037-1.092-1.516-1.674-.926-1.187-1.345-1.813a22.049,22.049,0,0,1-1.16-1.938c-.354-.664-.678-1.344-.965-2.039s-.542-1.4-.762-2.125-.4-1.451-.549-2.189-.257-1.482-.33-2.232-.11-1.5-.11-2.254.036-1.5.11-2.254.185-1.494.33-2.233.33-1.469.549-2.189.474-1.429.762-2.125a23.1,23.1,0,0,1,2.125-3.977c.419-.626.865-1.23,1.345-1.813s.982-1.14,1.516-1.673,1.09-1.038,1.673-1.516,1.188-.926,1.813-1.345a22.532,22.532,0,0,1,1.937-1.16q1-.532,2.04-.965t2.125-.761c.723-.219,1.45-.4,2.189-.549s1.482-.257,2.232-.331S27.613,5.766,28.367,5.766Z" fill="#fff"/>
    <path id="Tracé_6501" data-name="Tracé 6501" d="M32.367,36.766l9-7-9-7Z" fill="none" stroke="#24b7c2" stroke-linecap="round" stroke-linejoin="round" stroke-width="2"/>
    <path id="Tracé_6502" data-name="Tracé 6502" d="M21.367,36.766l9-7-9-7Z" fill="none" stroke="#24b7c2" stroke-linecap="round" stroke-linejoin="round" stroke-width="2"/>
  </g>
</svg>
