<svg xmlns="http://www.w3.org/2000/svg" width="46.002" height="46.002" viewBox="0 0 46.002 46.002">
  <g id="fast-forward-left" transform="translate(-5.366 -5.765)">
    <path id="Tracé_6497" data-name="Tracé 6497" d="M28.367,5.765q1.13,0,2.254.11t2.232.331q1.108.22,2.189.549t2.125.761q1.042.432,2.041.965t1.936,1.16q.939.628,1.813,1.345T44.63,12.5q.8.8,1.516,1.673t1.346,1.813a22.523,22.523,0,0,1,1.159,1.937q.532,1,.966,2.04t.761,2.125c.219.721.4,1.451.548,2.189s.257,1.483.331,2.233.111,1.5.111,2.254-.037,1.5-.111,2.253-.184,1.494-.331,2.233-.33,1.47-.548,2.188-.473,1.43-.761,2.125a22.5,22.5,0,0,1-.966,2.041q-.531,1-1.159,1.937t-1.346,1.813q-.717.873-1.516,1.673t-1.673,1.516q-.873.717-1.813,1.345t-1.936,1.16q-1,.532-2.041.965t-2.125.762c-.722.219-1.451.4-2.189.548a22.361,22.361,0,0,1-2.232.331q-1.125.111-2.254.111t-2.255-.111q-1.125-.11-2.232-.331t-2.189-.548q-1.082-.329-2.125-.762a22.338,22.338,0,0,1-2.041-.965q-1-.532-1.936-1.16t-1.813-1.345q-.875-.719-1.673-1.516t-1.516-1.673q-.719-.873-1.345-1.813t-1.16-1.937c-.355-.666-.678-1.344-.965-2.041s-.542-1.4-.762-2.125-.4-1.45-.548-2.188-.257-1.483-.331-2.233-.11-1.5-.11-2.253.036-1.5.11-2.254.185-1.494.331-2.233.33-1.469.548-2.189.473-1.429.762-2.125a22.335,22.335,0,0,1,.965-2.04q.531-1,1.16-1.937t1.345-1.813Q11.3,13.3,12.1,12.5t1.673-1.516q.873-.717,1.813-1.345t1.936-1.16q1-.532,2.041-.965t2.125-.761q1.083-.328,2.189-.549t2.232-.331Q27.237,5.766,28.367,5.765Z" fill="#fff"/>
    <path id="Tracé_6498" data-name="Tracé 6498" d="M25.367,36.766l-9-7,9-7Z" fill="none" stroke="#24b7c2" stroke-linecap="round" stroke-linejoin="round" stroke-width="2"/>
    <path id="Tracé_6499" data-name="Tracé 6499" d="M36.367,36.766l-9-7,9-7Z" fill="none" stroke="#24b7c2" stroke-linecap="round" stroke-linejoin="round" stroke-width="2"/>
  </g>
</svg>
