<svg xmlns="http://www.w3.org/2000/svg" width="31.762" height="31.762" viewBox="0 0 31.762 31.762">
  <g id="headphones" transform="translate(1.5 1.5)">
    <path id="Tracé_6493" data-name="Tracé 6493" d="M3,26.969V17.381a14.381,14.381,0,0,1,28.762,0v9.587" transform="translate(-3 -3)" fill="none" stroke="#0c81b5" stroke-linecap="round" stroke-linejoin="round" stroke-width="3"/>
    <path id="Tracé_6494" data-name="Tracé 6494" d="M31.762,21.99a3.2,3.2,0,0,1-3.2,3.2h-1.6a3.2,3.2,0,0,1-3.2-3.2V17.2a3.2,3.2,0,0,1,3.2-3.2h4.794ZM3,21.99a3.2,3.2,0,0,0,3.2,3.2h1.6a3.2,3.2,0,0,0,3.2-3.2V17.2a3.2,3.2,0,0,0-3.2-3.2H3Z" transform="translate(-3 3.577)" fill="none" stroke="#0c81b5" stroke-linecap="round" stroke-linejoin="round" stroke-width="3"/>
  </g>
</svg>
