<svg xmlns="http://www.w3.org/2000/svg" width="104.311" height="104.31" viewBox="0 0 104.311 104.31">
  <g id="Groupe_47" data-name="Groupe 47" transform="translate(-7.403 -7.631)">
    <path id="Tracé_6515" data-name="Tracé 6515" d="M65.167,26.631q1.9,0,3.8.185t3.763.553q1.868.369,3.69.916T80,29.555q1.76.723,3.439,1.612T86.7,33.1q1.584,1.049,3.055,2.246t2.818,2.532q1.345,1.334,2.555,2.793T97.4,43.7q1.058,1.568,1.956,3.233t1.627,3.408a37.648,37.648,0,0,1,1.281,3.549q.552,1.806.925,3.657t.557,3.729q.187,1.878.187,3.765t-.187,3.765q-.187,1.879-.557,3.729t-.925,3.657q-.554,1.807-1.281,3.55t-1.627,3.407q-.9,1.664-1.956,3.234t-2.266,3.027q-1.209,1.459-2.555,2.792t-2.818,2.533q-1.473,1.2-3.055,2.247T83.44,98.923q-1.679.889-3.439,1.61T76.419,101.8q-1.824.549-3.69.916t-3.763.553q-1.9.185-3.8.185t-3.8-.185q-1.894-.184-3.763-.553t-3.69-.916q-1.823-.55-3.582-1.271t-3.439-1.61q-1.68-.891-3.263-1.938t-3.055-2.247Q39.1,93.54,37.756,92.2T35.2,89.412q-1.208-1.458-2.266-3.027T30.98,83.152q-.9-1.665-1.627-3.407t-1.281-3.55q-.553-1.8-.925-3.657t-.558-3.729q-.186-1.877-.187-3.765t.187-3.765q.187-1.878.558-3.729t.925-3.657q.553-1.807,1.281-3.549t1.627-3.408q.9-1.664,1.956-3.233T35.2,40.676q1.207-1.459,2.555-2.793t2.819-2.532q1.473-1.2,3.055-2.246t3.263-1.937q1.679-.89,3.439-1.612t3.582-1.27q1.823-.549,3.69-.916t3.763-.553Q63.262,26.631,65.167,26.631Z" transform="translate(-5.609 -5.609)" fill="#89cfbd" opacity="0.141" style="isolation: isolate"/>
    <path id="Tracé_6516" data-name="Tracé 6516" d="M59.558,7.631q1.279,0,2.559.063c.853.043,1.7.1,2.553.189s1.7.188,2.541.313,1.684.271,2.521.438,1.67.354,2.5.561,1.652.435,2.467.683,1.628.515,2.431.8,1.6.595,2.39.921,1.569.672,2.339,1.037,1.534.749,2.286,1.152,1.5.823,2.226,1.262,1.455.9,2.164,1.369,1.407.966,2.092,1.474,1.36,1.034,2.019,1.575,1.307,1.1,1.938,1.672,1.25,1.161,1.854,1.765,1.192,1.221,1.764,1.854,1.131,1.279,1.672,1.938,1.068,1.333,1.575,2.018,1,1.384,1.474,2.093.93,1.431,1.369,2.162.86,1.475,1.262,2.227.786,1.515,1.151,2.287.712,1.551,1.038,2.34.633,1.584.922,2.389.555,1.614.8,2.43.477,1.639.684,2.467.395,1.66.561,2.5.312,1.678.438,2.522.23,1.691.312,2.541.147,1.7.189,2.553.063,1.706.063,2.559-.02,1.707-.063,2.559-.1,1.7-.189,2.552-.19,1.7-.312,2.541-.272,1.685-.438,2.522-.354,1.67-.561,2.5-.436,1.652-.684,2.467-.515,1.628-.8,2.431-.6,1.6-.922,2.39-.672,1.567-1.038,2.339-.749,1.534-1.151,2.286-.822,1.495-1.262,2.227-.9,1.454-1.369,2.163-.966,1.407-1.474,2.092-1.034,1.36-1.575,2.019-1.1,1.306-1.672,1.938-1.16,1.25-1.764,1.854-1.221,1.191-1.854,1.765S93.3,99.559,92.644,100.1s-1.333,1.067-2.019,1.575-1.384,1-2.092,1.474-1.432.93-2.164,1.369-1.474.86-2.226,1.262-1.513.786-2.286,1.152-1.551.711-2.339,1.037-1.584.634-2.39.922-1.614.555-2.431.8-1.638.477-2.467.684-1.661.395-2.5.561-1.677.312-2.521.438-1.692.23-2.541.312-1.7.147-2.553.19-1.706.063-2.559.063-1.706-.02-2.559-.063-1.7-.1-2.553-.19-1.7-.19-2.54-.312-1.685-.273-2.522-.438-1.67-.353-2.5-.561-1.651-.436-2.467-.684-1.627-.514-2.431-.8-1.6-.6-2.389-.922-1.569-.672-2.341-1.037-1.534-.75-2.286-1.152-1.5-.823-2.227-1.262-1.453-.9-2.163-1.369-1.407-.966-2.093-1.474-1.358-1.034-2.019-1.575-1.306-1.1-1.938-1.672-1.25-1.161-1.854-1.765-1.192-1.221-1.766-1.854-1.13-1.278-1.672-1.938-1.066-1.333-1.575-2.019-1-1.383-1.474-2.092-.93-1.432-1.369-2.163-.86-1.475-1.262-2.227-.786-1.515-1.151-2.286-.711-1.551-1.037-2.339-.634-1.584-.921-2.39-.555-1.614-.8-2.431-.476-1.638-.683-2.467S8.571,70.8,8.4,69.96s-.312-1.678-.438-2.522-.23-1.69-.313-2.541-.147-1.7-.188-2.552S7.4,60.64,7.4,59.786s.021-1.707.063-2.559.1-1.7.188-2.553.188-1.7.313-2.541.271-1.685.438-2.522.353-1.67.561-2.5.435-1.651.683-2.467.515-1.627.8-2.43.595-1.6.921-2.389.672-1.569,1.037-2.34.748-1.534,1.151-2.287.823-1.495,1.262-2.227.9-1.453,1.369-2.162.966-1.407,1.474-2.093S18.7,27.36,19.242,26.7s1.1-1.306,1.672-1.938,1.162-1.25,1.766-1.854,1.221-1.192,1.854-1.765,1.279-1.13,1.938-1.672S27.8,18.4,28.49,17.9s1.383-1,2.093-1.474,1.431-.93,2.163-1.369,1.474-.86,2.227-1.262,1.515-.786,2.286-1.152,1.552-.71,2.341-1.037,1.584-.634,2.389-.921,1.614-.555,2.431-.8,1.639-.476,2.467-.683,1.661-.395,2.5-.561,1.677-.312,2.522-.438,1.691-.23,2.54-.313,1.7-.147,2.553-.189S58.7,7.631,59.558,7.631Z" transform="translate(0 0)" fill="#49005b" opacity="0.141" style="isolation: isolate"/>
    <path id="Tracé_6517" data-name="Tracé 6517" d="M67.176,34.631q1.61,0,3.212.158t3.181.472q1.578.314,3.119.781t3.03,1.083q1.486.616,2.907,1.375t2.757,1.654q1.341.894,2.584,1.916t2.384,2.16q1.135,1.139,2.159,2.384T94.426,49.2c.6.893,1.147,1.812,1.655,2.759s.962,1.916,1.374,2.907.773,2,1.083,3.029.574,2.067.782,3.119.366,2.114.472,3.182.158,2.138.158,3.212-.051,2.144-.158,3.212-.261,2.129-.472,3.181-.47,2.093-.782,3.12-.673,2.038-1.083,3.029-.868,1.959-1.374,2.907-1.057,1.865-1.655,2.758A32.065,32.065,0,0,1,92.51,88.2q-1.022,1.247-2.159,2.385t-2.384,2.16q-1.244,1.019-2.584,1.914T82.625,96.31q-1.42.759-2.907,1.373a32.124,32.124,0,0,1-3.029,1.085q-1.54.467-3.119.781t-3.181.472q-1.6.158-3.212.158t-3.212-.158q-1.6-.16-3.181-.472t-3.119-.781q-1.541-.466-3.029-1.085T51.727,96.31q-1.42-.761-2.759-1.656T46.385,92.74Q45.14,91.717,44,90.581T41.842,88.2q-1.021-1.242-1.916-2.582t-1.653-2.758q-.759-1.422-1.375-2.907t-1.083-3.029q-.467-1.54-.782-3.12t-.472-3.181q-.158-1.6-.158-3.212t.158-3.212q.158-1.6.472-3.182t.782-3.119q.467-1.541,1.083-3.029t1.375-2.907q.759-1.42,1.653-2.759t1.916-2.583Q42.863,45.368,44,44.23t2.383-2.16q1.244-1.021,2.584-1.916T51.727,38.5q1.42-.759,2.907-1.375t3.029-1.083q1.54-.466,3.119-.781t3.181-.472Q65.565,34.631,67.176,34.631Z" transform="translate(-7.97 -7.97)" fill="#fff"/>
    <path id="Tracé_6519" data-name="Tracé 6519" d="M72.85,87.344a.816.816,0,0,1-.891.715h0a.817.817,0,0,1-.891-.715V66.221a.818.818,0,0,1,.891-.716h0a.817.817,0,0,1,.891.716Z" transform="translate(-19.166 -17.084)" fill="#c61981"/>
    <path id="Tracé_6520" data-name="Tracé 6520" d="M72.85,87.344a.816.816,0,0,1-.891.715h0a.817.817,0,0,1-.891-.715V66.221a.818.818,0,0,1,.891-.716h0a.817.817,0,0,1,.891.716Z" transform="translate(-7.166 -17.084)" fill="#c61981"/>
  </g>
</svg>
