<svg xmlns="http://www.w3.org/2000/svg" width="104.623" height="104.622" viewBox="0 0 104.623 104.622">
  <g id="play" transform="translate(-7.403 -7.631)">
    <path id="Tracé_6503" data-name="Tracé 6503" d="M65.283,26.631q1.91,0,3.811.186t3.774.554q1.875.37,3.7.919t3.593,1.274q1.765.725,3.449,1.617t3.273,1.943q1.588,1.052,3.064,2.253t2.827,2.539q1.349,1.338,2.563,2.8t2.273,3.037Q98.672,45.327,99.572,47t1.632,3.418a37.758,37.758,0,0,1,1.285,3.56q.552,1.811.928,3.667t.559,3.74q.189,1.883.188,3.776t-.188,3.776q-.188,1.884-.559,3.74t-.928,3.667q-.556,1.812-1.285,3.561t-1.632,3.417q-.9,1.669-1.962,3.243T95.338,89.6q-1.213,1.464-2.563,2.8t-2.827,2.54q-1.477,1.2-3.064,2.253t-3.273,1.944q-1.684.893-3.449,1.616t-3.593,1.274q-1.829.551-3.7.92t-3.774.554q-1.9.187-3.811.187t-3.811-.187q-1.9-.185-3.774-.554t-3.7-.92q-1.828-.55-3.593-1.274t-3.449-1.616q-1.685-.893-3.272-1.944t-3.064-2.253q-1.477-1.2-2.828-2.54t-2.563-2.8q-1.212-1.462-2.273-3.036t-1.962-3.243q-.9-1.669-1.632-3.417t-1.285-3.561q-.555-1.81-.927-3.667t-.56-3.74q-.187-1.882-.187-3.776t.187-3.776q.188-1.883.56-3.74t.927-3.667q.555-1.812,1.285-3.56T30.993,47q.9-1.669,1.962-3.243t2.273-3.037q1.211-1.463,2.563-2.8t2.828-2.539q1.477-1.2,3.064-2.253t3.273-1.943q1.684-.893,3.449-1.617T54,28.29q1.828-.55,3.7-.919t3.774-.554Q63.373,26.631,65.283,26.631Z" transform="translate(-5.568 -5.569)" fill="#89cfbd" opacity="0.141"/>
    <path id="Tracé_6504" data-name="Tracé 6504" d="M59.714,7.631q1.283,0,2.567.063c.855.043,1.709.1,2.561.189s1.7.189,2.548.314,1.69.272,2.529.439,1.675.355,2.505.563,1.656.436,2.474.685,1.633.517,2.438.806,1.605.6,2.4.924,1.574.674,2.346,1.041,1.539.751,2.293,1.155,1.5.825,2.233,1.265,1.458.9,2.17,1.373,1.411.968,2.1,1.479,1.363,1.037,2.024,1.579,1.311,1.1,1.944,1.677,1.254,1.164,1.86,1.77,1.2,1.225,1.77,1.86,1.134,1.282,1.677,1.944,1.07,1.337,1.579,2.024,1,1.388,1.479,2.1.933,1.435,1.373,2.169.862,1.48,1.265,2.234.788,1.519,1.154,2.294.714,1.556,1.041,2.347.635,1.589.925,2.4.557,1.619.806,2.437.478,1.644.685,2.475.4,1.665.563,2.505.312,1.683.439,2.529.23,1.7.313,2.548.147,1.705.189,2.56.064,1.711.064,2.567-.021,1.712-.064,2.567-.1,1.709-.189,2.56-.189,1.7-.313,2.548-.273,1.69-.439,2.529-.355,1.675-.563,2.505-.436,1.656-.685,2.474-.516,1.633-.806,2.438-.6,1.605-.925,2.4-.674,1.573-1.041,2.346-.751,1.539-1.154,2.293-.825,1.5-1.265,2.235-.9,1.458-1.373,2.169-.969,1.411-1.479,2.1-1.037,1.363-1.579,2.024-1.1,1.311-1.677,1.944-1.164,1.254-1.77,1.86-1.224,1.195-1.86,1.77-1.282,1.134-1.944,1.677-1.337,1.07-2.024,1.579-1.388,1-2.1,1.479-1.436.933-2.17,1.373-1.479.862-2.233,1.265-1.518.788-2.293,1.155-1.556.713-2.346,1.041-1.589.636-2.4.925-1.619.557-2.438.806-1.644.478-2.474.685-1.665.4-2.505.563-1.682.312-2.529.439-1.7.23-2.548.313-1.706.147-2.561.189-1.711.064-2.567.064-1.711-.021-2.567-.064-1.709-.1-2.561-.189-1.7-.189-2.548-.313-1.69-.273-2.53-.439-1.675-.355-2.505-.563-1.656-.436-2.474-.685-1.632-.516-2.438-.806-1.6-.6-2.4-.925-1.574-.674-2.348-1.041-1.538-.751-2.293-1.155-1.5-.825-2.234-1.265-1.458-.9-2.169-1.373-1.412-.969-2.1-1.479-1.362-1.037-2.025-1.579-1.31-1.1-1.944-1.677-1.254-1.164-1.859-1.77-1.2-1.224-1.771-1.86-1.134-1.282-1.677-1.944-1.07-1.337-1.58-2.024-1-1.388-1.478-2.1-.933-1.436-1.374-2.169-.862-1.48-1.266-2.235-.788-1.519-1.154-2.293-.713-1.556-1.041-2.346-.636-1.589-.924-2.4-.557-1.619-.805-2.438-.477-1.644-.685-2.474-.4-1.665-.563-2.505-.313-1.683-.439-2.529-.23-1.7-.314-2.548-.147-1.7-.189-2.56S7.4,60.8,7.4,59.942s.021-1.712.064-2.567.1-1.709.189-2.56.189-1.7.314-2.548.272-1.69.439-2.529.354-1.675.563-2.505.436-1.656.685-2.475.517-1.632.805-2.437.6-1.6.924-2.4.674-1.574,1.041-2.347.751-1.539,1.154-2.294.825-1.5,1.266-2.234.9-1.458,1.374-2.169.968-1.412,1.478-2.1,1.036-1.362,1.58-2.024,1.1-1.31,1.677-1.944,1.165-1.254,1.771-1.86,1.225-1.2,1.859-1.77,1.282-1.134,1.944-1.677,1.337-1.07,2.025-1.579,1.387-1,2.1-1.479,1.435-.933,2.17-1.373,1.479-.862,2.234-1.265,1.519-.788,2.293-1.155,1.557-.713,2.348-1.041,1.589-.636,2.4-.924,1.619-.557,2.438-.806S46.174,9.407,47,9.2s1.665-.4,2.505-.563,1.682-.313,2.53-.439,1.7-.23,2.548-.314,1.706-.147,2.561-.189S58.858,7.631,59.714,7.631Z" fill="#3e135e" opacity="0.15"/>
    <path id="Tracé_6505" data-name="Tracé 6505" d="M67.274,34.631q1.615,0,3.222.158t3.191.474q1.583.315,3.129.783t3.038,1.087q1.492.618,2.916,1.379t2.766,1.659q1.343.9,2.592,1.921t2.391,2.166q1.14,1.142,2.165,2.391t1.922,2.591q.9,1.343,1.659,2.767t1.378,2.916q.617,1.492,1.087,3.038t.783,3.129q.316,1.584.473,3.192t.159,3.222q0,1.614-.159,3.222t-.473,3.191q-.315,1.584-.783,3.13t-1.087,3.038Q97.024,81.575,96.265,83t-1.659,2.767q-.9,1.343-1.922,2.59t-2.165,2.391q-1.142,1.141-2.391,2.166t-2.592,1.921q-1.342.9-2.767,1.66t-2.916,1.378q-1.491.619-3.038,1.088t-3.129.783q-1.582.315-3.191.474t-3.222.159q-1.615,0-3.222-.159t-3.191-.474q-1.583-.315-3.129-.783t-3.038-1.088q-1.492-.617-2.916-1.378t-2.767-1.66q-1.342-.9-2.592-1.921t-2.39-2.166q-1.142-1.142-2.166-2.391t-1.922-2.59q-.9-1.345-1.658-2.767T36.9,80.084q-.618-1.492-1.087-3.038t-.784-3.13q-.315-1.582-.473-3.191T34.4,67.5q0-1.615.158-3.222t.473-3.192q.315-1.583.784-3.129T36.9,54.923q.618-1.492,1.379-2.916t1.658-2.767q.9-1.343,1.922-2.591t2.166-2.391q1.142-1.141,2.39-2.166t2.592-1.921q1.342-.9,2.767-1.659t2.916-1.379q1.492-.617,3.038-1.087t3.129-.783q1.583-.314,3.191-.474T67.274,34.631Z" transform="translate(-7.913 -7.913)" fill="#fff"/>
    <path id="Tracé_6506" data-name="Tracé 6506" d="M73.9,65.881,91.222,77.015,73.9,88.149Z" transform="translate(-19.491 -17.073)" fill="none" stroke="#24b7c2" stroke-linecap="round" stroke-linejoin="round" stroke-width="2"/>
  </g>
</svg>
