<svg xmlns="http://www.w3.org/2000/svg" width="46.003" height="46.002" viewBox="0 0 46.003 46.002">
  <g id="repeat" transform="translate(-4.795 -6.224)">
    <path id="Tracé_6507" data-name="Tracé 6507" d="M27.8,6.224q1.13,0,2.254.11t2.233.331q1.107.22,2.188.549t2.125.761q1.044.432,2.041.965t1.937,1.16q.939.628,1.813,1.345t1.673,1.516q.8.8,1.517,1.673t1.345,1.813q.627.939,1.16,1.937t.965,2.04q.434,1.044.761,2.125t.548,2.189q.22,1.109.331,2.233t.111,2.254q0,1.13-.111,2.253t-.331,2.233c-.146.738-.33,1.47-.548,2.188a22.474,22.474,0,0,1-.761,2.125q-.432,1.045-.965,2.041T46.922,42q-.628.939-1.345,1.813T44.06,45.488q-.8.8-1.673,1.516t-1.813,1.345q-.939.627-1.937,1.16t-2.041.965q-1.044.434-2.125.762c-.721.219-1.451.4-2.188.548s-1.483.258-2.233.331-1.5.111-2.254.111-1.5-.037-2.254-.111-1.494-.184-2.233-.331a22.5,22.5,0,0,1-2.188-.548q-1.083-.329-2.125-.762a22.214,22.214,0,0,1-2.041-.965q-1-.531-1.937-1.16T13.205,47q-.875-.719-1.673-1.516t-1.517-1.673Q9.3,42.942,8.67,42T7.51,40.065c-.355-.666-.677-1.344-.965-2.041S6,36.622,5.785,35.9s-.4-1.45-.549-2.188-.257-1.483-.33-2.233-.111-1.5-.111-2.253.037-1.5.111-2.254.184-1.494.33-2.233.33-1.469.549-2.189.472-1.429.761-2.125.609-1.376.965-2.04.742-1.311,1.16-1.937.867-1.23,1.345-1.813S11,13.5,11.533,12.962s1.09-1.038,1.673-1.516,1.187-.926,1.813-1.345,1.272-.806,1.937-1.16S18.3,8.264,19,7.976s1.4-.542,2.125-.761,1.45-.4,2.188-.549,1.483-.257,2.233-.331S27.042,6.224,27.8,6.224Z" fill="#fff"/>
    <path id="Tracé_6508" data-name="Tracé 6508" d="M32.8,19.224l4,4-4,4" fill="none" stroke="#24b7c2" stroke-linecap="round" stroke-linejoin="round" stroke-width="2"/>
    <path id="Tracé_6509" data-name="Tracé 6509" d="M18.8,29.224v-2a4,4,0,0,1,4-4h14" fill="none" stroke="#24b7c2" stroke-linecap="round" stroke-linejoin="round" stroke-width="2"/>
    <path id="Tracé_6510" data-name="Tracé 6510" d="M22.8,41.225l-4-4,4-4" fill="none" stroke="#24b7c2" stroke-linecap="round" stroke-linejoin="round" stroke-width="2"/>
    <path id="Tracé_6511" data-name="Tracé 6511" d="M36.8,31.225v2a4,4,0,0,1-4,4h-14" fill="none" stroke="#24b7c2" stroke-linecap="round" stroke-linejoin="round" stroke-width="2"/>
  </g>
</svg>
