<svg xmlns="http://www.w3.org/2000/svg" width="46.002" height="46.002" viewBox="0 0 46.002 46.002">
  <g id="shuffle" transform="translate(-5.366 -5.766)">
    <path id="Tracé_6512" data-name="Tracé 6512" d="M28.367,5.766q1.13,0,2.254.11t2.232.331c.738.147,1.47.33,2.189.549s1.429.473,2.125.761,1.376.609,2.04.965,1.31.742,1.937,1.16,1.23.867,1.813,1.345,1.14.983,1.673,1.516,1.038,1.09,1.516,1.673.927,1.187,1.346,1.813a22.523,22.523,0,0,1,1.159,1.937q.532,1,.966,2.04t.761,2.125c.219.721.4,1.451.548,2.189s.258,1.483.332,2.233.11,1.5.11,2.254-.037,1.5-.11,2.254-.185,1.494-.332,2.232-.329,1.469-.548,2.189-.474,1.429-.761,2.125a22.452,22.452,0,0,1-.966,2.039q-.532,1-1.159,1.938t-1.346,1.813a22.461,22.461,0,0,1-1.516,1.674q-.8.8-1.673,1.516t-1.813,1.346q-.94.627-1.937,1.159t-2.04.966q-1.044.43-2.125.76t-2.189.549q-1.107.22-2.232.331t-2.254.11q-1.131,0-2.255-.11c-.75-.073-1.493-.185-2.232-.331a22.306,22.306,0,0,1-2.189-.549q-1.08-.329-2.125-.76c-.695-.289-1.376-.609-2.04-.966s-1.31-.741-1.937-1.159-1.23-.867-1.813-1.346-1.14-.982-1.673-1.516-1.038-1.092-1.516-1.674-.926-1.187-1.345-1.813a22.549,22.549,0,0,1-1.16-1.938q-.533-1-.965-2.039t-.762-2.125c-.219-.721-.4-1.451-.548-2.189s-.258-1.482-.332-2.232-.109-1.5-.109-2.254.036-1.5.109-2.254.186-1.494.332-2.233.329-1.469.548-2.189.474-1.429.762-2.125a22.073,22.073,0,0,1,.965-2.04q.531-1,1.16-1.937t1.345-1.813Q11.3,13.3,12.1,12.5t1.673-1.516q.873-.717,1.813-1.345t1.937-1.16q1-.532,2.04-.965t2.125-.761q1.083-.328,2.189-.549t2.232-.331Q27.237,5.767,28.367,5.766Z" fill="#fff"/>
    <path id="Tracé_6513" data-name="Tracé 6513" d="M32.367,20.766h5v5" fill="none" stroke="#24b7c2" stroke-linecap="round" stroke-linejoin="round" stroke-width="2"/>
    <line id="Ligne_12" data-name="Ligne 12" y1="17" x2="17" transform="translate(20.367 20.766)" fill="none" stroke="#24b7c2" stroke-linecap="round" stroke-linejoin="round" stroke-width="2"/>
    <path id="Tracé_6514" data-name="Tracé 6514" d="M37.367,33.766v5h-5" fill="none" stroke="#24b7c2" stroke-linecap="round" stroke-linejoin="round" stroke-width="2"/>
    <line id="Ligne_13" data-name="Ligne 13" x2="6" y2="6" transform="translate(31.367 32.766)" fill="none" stroke="#24b7c2" stroke-linecap="round" stroke-linejoin="round" stroke-width="2"/>
    <path id="Tracé_7404" data-name="Tracé 7404" d="M0,0,5,5" transform="translate(20.367 21.766)" fill="none" stroke="#24b7c2" stroke-linecap="round" stroke-width="2"/>
  </g>
</svg>
